<svg id="Layer_1" enable-background="new 0 0 512 512" viewBox="0 0 512 512" xmlns="http://www.w3.org/2000/svg"><g><g><g><path d="m480 341.334h-53.333v-32c0-5.888-4.779-10.667-10.667-10.667h-128c-5.888 0-10.667 4.779-10.667 10.667v32h-106.666v-160c0-5.888-4.779-10.667-10.667-10.667h-6.528l16.64-49.963c.363-1.088.555-2.219.555-3.371v-42.666c0-5.888-4.779-10.667-10.667-10.667h-53.333v-53.333c0-5.888-4.779-10.667-10.667-10.667s-10.667 4.779-10.667 10.667v53.333h-53.333c-5.888 0-10.667 4.779-10.667 10.667v42.667c0 1.152.192 2.283.555 3.371l16.64 49.963h-6.528c-5.888 0-10.667 4.779-10.667 10.667v160h-10.666c-5.888-.001-10.667 4.777-10.667 10.665v149.333c0 5.889 4.779 10.667 10.667 10.667h352v-117.333c0-5.888 4.779-10.667 10.667-10.667h64c5.888 0 10.667 4.779 10.667 10.667v117.333h32c5.888 0 10.667-4.779 10.667-10.667v-149.333c-.001-5.888-4.78-10.666-10.668-10.666zm-373.333 96c0 5.888-4.779 10.667-10.667 10.667h-42.667c-5.888 0-10.667-4.779-10.667-10.667v-42.667c0-5.888 4.779-10.667 10.667-10.667h42.667c5.888 0 10.667 4.779 10.667 10.667zm21.333-170.667c0 5.888-4.779 10.667-10.667 10.667h-42.666c-5.888 0-10.667-4.779-10.667-10.667v-42.667c0-5.888 4.779-10.667 10.667-10.667h42.667c5.888 0 10.667 4.779 10.667 10.667v42.667zm-10.667-138.667h-42.666c-5.888 0-10.667-4.778-10.667-10.666s4.779-10.667 10.667-10.667h42.667c5.888 0 10.667 4.779 10.667 10.667s-4.78 10.666-10.668 10.666zm96 309.334c0 5.888-4.779 10.667-10.667 10.667h-42.666c-5.888 0-10.667-4.779-10.667-10.667v-42.667c0-5.888 4.779-10.667 10.667-10.667h42.667c5.888 0 10.667 4.779 10.667 10.667v42.667zm106.667 0c0 5.888-4.779 10.667-10.667 10.667h-42.667c-5.888 0-10.667-4.779-10.667-10.667v-42.667c0-5.888 4.779-10.667 10.667-10.667h42.667c5.888 0 10.667 4.779 10.667 10.667z"/><path d="m503.957 95.04c-17.493-11.968-36.075-13.44-54.293-4.587l-60.459 28.416-1.792 1.067-37.419-19.563c-15.637-10.411-33.515-15.936-52.011-15.936h-.021l-31.573.896c-4.544.128-8.491 3.115-9.856 7.445-1.365 4.331.128 9.045 3.776 11.755l66.411 49.792-52.267 27.157c-6.464-.619-25.152-5.184-34.453-7.467-12.032-2.923-13.888-3.349-16-3.349h-21.333c-4.501 0-8.533 2.837-10.048 7.083-1.515 4.245-.192 8.981 3.307 11.84 9.536 7.787 58.475 46.635 85.44 46.635 4.587 0 8.64-1.024 11.477-2.709l211.349-107.456c4.928-3.456 7.851-9.259 7.808-15.531-.021-6.25-3.029-12.032-8.043-15.488z"/></g></g></g><g/><g/><g/><g/><g/><g/><g/><g/><g/><g/><g/><g/><g/><g/><g/></svg>