<?xml version="1.0" encoding="iso-8859-1"?>
<!-- Generator: Adobe Illustrator 19.0.0, SVG Export Plug-In . SVG Version: 6.00 Build 0)  -->
<svg version="1.1" id="Capa_1" xmlns="http://www.w3.org/2000/svg" xmlns:xlink="http://www.w3.org/1999/xlink" x="0px" y="0px"
	 viewBox="0 0 488.448 488.448" style="enable-background:new 0 0 488.448 488.448;" xml:space="preserve">
<g>
	<g>
		<path d="M443.904,425.472v-30.72h30.72v-30.72h-20.48v-81.92c0.288-8.195-6.122-15.072-14.318-15.36
			c-0.347-0.012-0.695-0.012-1.042,0h-220.16c-8.195-0.288-15.072,6.122-15.36,14.318c-0.012,0.347-0.012,0.695,0,1.042v81.92
			h-20.48v30.72h30.72v30.72h-97.28v-80.384c45.568-12.288,79.36-76.288,79.36-155.648c0-88.064-41.472-157.184-94.72-157.184
			c-53.248,0-94.72,69.12-94.72,157.184c0,79.36,33.792,143.36,79.36,155.648v80.384H0v30.72h488.448v-30.72H443.904z
			 M413.184,425.472h-168.96v-30.72h168.96V425.472z"/>
	</g>
</g>
<g>
</g>
<g>
</g>
<g>
</g>
<g>
</g>
<g>
</g>
<g>
</g>
<g>
</g>
<g>
</g>
<g>
</g>
<g>
</g>
<g>
</g>
<g>
</g>
<g>
</g>
<g>
</g>
<g>
</g>
</svg>
