<?xml version="1.0" encoding="utf-8"?>
<!-- Generator: Adobe Illustrator 22.0.0, SVG Export Plug-In . SVG Version: 6.00 Build 0)  -->
<svg version="1.1" id="Capa_1" xmlns="http://www.w3.org/2000/svg" xmlns:xlink="http://www.w3.org/1999/xlink" x="0px" y="0px"
	 viewBox="0 0 512 512" style="enable-background:new 0 0 512 512;" xml:space="preserve">
<style type="text/css">
	.st0{fill:#686838;}
	.st1{fill:#FFFFFF;}
</style>
<g>
	<g>
		<g>
			<path class="st0" d="M255.6-1c-99.3,0-180,80.7-180,180c0,33.5,9.3,66.3,26.9,94.6l142.9,230.3c5.9,9.6,19.9,9.4,25.6-0.2
				l139.2-232.5c16.6-27.8,25.4-59.7,25.4-92.2C435.6,79.7,354.9-1,255.6-1z M255.6,269.2c-50.3,0-90.2-41-90.2-90.2
				c0-49.6,40.6-90.2,90.2-90.2s90.2,40.6,90.2,90.2C345.8,227.8,306.5,269.2,255.6,269.2z"/>
		</g>
	</g>
	<g>
		<g>
			<path class="st0" d="M255.4,63.6C191.8,63.6,140,115.3,140,179c0,64,51.7,115.4,115.4,115.4c64.9,0,115.4-52.4,115.4-115.4
				C370.9,115.3,319.1,63.6,255.4,63.6z"/>
		</g>
	</g>
</g>
<g>
	<g>
		<g>
			<g>
				<path class="st1" d="M343.7,213.8h-20.5V201c0-2.3-1.8-4.2-4.1-4.2H270c-2.3,0-4.1,1.9-4.1,4.2v12.7h-41v-63.6
					c0-2.3-1.8-4.2-4.1-4.2h-2.5l6.4-19.9c0.1-0.4,0.2-0.9,0.2-1.3v-17c0-2.3-1.8-4.2-4.1-4.2h-20.5V82.2c0-2.3-1.8-4.2-4.1-4.2
					c-2.3,0-4.1,1.9-4.1,4.2v21.2h-20.5c-2.3,0-4.1,1.9-4.1,4.2v17c0,0.5,0.1,0.9,0.2,1.3l6.4,19.9h-2.5c-2.3,0-4.1,1.9-4.1,4.2
					v63.6h-4.1c-2.3,0-4.1,1.9-4.1,4.2v59.4c0,2.3,1.8,4.2,4.1,4.2h135.2V235c0-2.3,1.8-4.2,4.1-4.2h24.6c2.3,0,4.1,1.9,4.1,4.2
					v46.7h12.3c2.3,0,4.1-1.9,4.1-4.2V218C347.8,215.7,346,213.8,343.7,213.8L343.7,213.8z M200.3,252c0,2.3-1.8,4.2-4.1,4.2h-16.4
					c-2.3,0-4.1-1.9-4.1-4.2v-17c0-2.3,1.8-4.2,4.1-4.2h16.4c2.3,0,4.1,1.9,4.1,4.2V252z M208.5,184.1c0,2.3-1.8,4.2-4.1,4.2H188
					c-2.3,0-4.1-1.9-4.1-4.2v-17c0-2.3,1.8-4.2,4.1-4.2h16.4c2.3,0,4.1,1.9,4.1,4.2L208.5,184.1L208.5,184.1z M204.4,128.9H188
					c-2.3,0-4.1-1.9-4.1-4.2s1.8-4.2,4.1-4.2h16.4c2.3,0,4.1,1.9,4.1,4.2S206.7,128.9,204.4,128.9z M241.3,252
					c0,2.3-1.8,4.2-4.1,4.2h-16.4c-2.3,0-4.1-1.9-4.1-4.2v-17c0-2.3,1.8-4.2,4.1-4.2h16.4c2.3,0,4.1,1.9,4.1,4.2L241.3,252
					L241.3,252z M282.3,252c0,2.3-1.8,4.2-4.1,4.2h-16.4c-2.3,0-4.1-1.9-4.1-4.2v-17c0-2.3,1.8-4.2,4.1-4.2h16.4
					c2.3,0,4.1,1.9,4.1,4.2V252z"/>
				<path class="st1" d="M352.9,115.8c-6.7-4.8-13.9-5.3-20.9-1.8l-23.2,11.3l-0.7,0.4l-14.4-7.8c-6-4.1-12.9-6.3-20-6.3h0
					l-12.1,0.4c-1.7,0.1-3.3,1.2-3.8,3c-0.5,1.7,0,3.6,1.5,4.7l25.5,19.8l-20.1,10.8c-2.5-0.2-9.7-2.1-13.2-3
					c-4.6-1.2-5.3-1.3-6.1-1.3h-8.2c-1.7,0-3.3,1.1-3.9,2.8c-0.6,1.7-0.1,3.6,1.3,4.7c3.7,3.1,22.5,18.6,32.8,18.6
					c1.8,0,3.3-0.4,4.4-1.1l81.2-42.7c1.9-1.4,3-3.7,3-6.2C356,119.5,354.8,117.2,352.9,115.8L352.9,115.8z"/>
			</g>
		</g>
	</g>
	<g>
	</g>
	<g>
	</g>
	<g>
	</g>
	<g>
	</g>
	<g>
	</g>
	<g>
	</g>
	<g>
	</g>
	<g>
	</g>
	<g>
	</g>
	<g>
	</g>
	<g>
	</g>
	<g>
	</g>
	<g>
	</g>
	<g>
	</g>
	<g>
	</g>
</g>
</svg>
