<?xml version="1.0" encoding="utf-8"?>
<!-- Generator: Adobe Illustrator 22.0.0, SVG Export Plug-In . SVG Version: 6.00 Build 0)  -->
<svg version="1.1" id="Capa_1" xmlns="http://www.w3.org/2000/svg" xmlns:xlink="http://www.w3.org/1999/xlink" x="0px" y="0px"
	 viewBox="0 0 512 512" style="enable-background:new 0 0 512 512;" xml:space="preserve">
<style type="text/css">
	.st0{fill:#58B7C7;}
	.st1{fill:#FFFFFF;}
</style>
<g>
	<g>
		<g>
			<path class="st0" d="M255.6-1c-99.3,0-180,80.7-180,180c0,33.5,9.3,66.3,26.9,94.6l142.9,230.3c5.9,9.6,19.9,9.4,25.6-0.2
				l139.2-232.5c16.6-27.8,25.4-59.7,25.4-92.2C435.6,79.7,354.9-1,255.6-1z M255.6,269.2c-50.3,0-90.2-41-90.2-90.2
				c0-49.6,40.6-90.2,90.2-90.2s90.2,40.6,90.2,90.2C345.8,227.8,306.5,269.2,255.6,269.2z"/>
		</g>
	</g>
	<g>
		<g>
			<path class="st0" d="M255.4,63.6C191.8,63.6,140,115.3,140,179c0,64,51.7,115.4,115.4,115.4c64.9,0,115.4-52.4,115.4-115.4
				C370.9,115.3,319.1,63.6,255.4,63.6z"/>
		</g>
	</g>
</g>
<g>
	<g>
		<path class="st1" d="M211.9,175.6c9.7-6.4,22-6.8,32-1.1l20.9-42.1h-94.6c-6.3,0-10,7.1-6.5,12.3l29.7,43.2
			C224.5,167.1,198.5,184.5,211.9,175.6L211.9,175.6z"/>
		<path class="st1" d="M312.5,317.1h-50.7v-53l43.6-63.3c-23.3-15.6-16.4-11-18.2-12.1c-5-3.3-11.4-3.3-16.4,0
			c-5.4,3.6-12,5.5-18.9,5.1l-8.5,17c-1.4,2.8-4.1,4.4-7,4.4c-5.8,0-9.6-6.1-7-11.4l7.5-15.2c-4.9-3.2-11.3-3.3-16.3,0.1
			c-2,1.3,6-4-18.2,12.1l43.6,63.3v53h-50.7c-4.3,0-7.8,3.5-7.8,7.9s3.5,7.9,7.8,7.9h117.1c4.3,0,7.8-3.5,7.8-7.9
			C320.3,320.6,316.8,317.1,312.5,317.1L312.5,317.1z"/>
		<path class="st1" d="M337.6,132.4h-37.7l27.9-56.2c1.9-3.9,0.4-8.6-3.5-10.5c-3.9-1.9-8.6-0.4-10.5,3.5
			c-28.9,58.1-24.5,49.3-53.4,107.3c0.6-0.3,1.2-0.6,1.7-1c10.3-6.9,23.5-6.9,33.8,0c13.8,9.2-12.5-8.4,18.4,12.3l29.7-43.2
			C347.6,139.5,343.9,132.4,337.6,132.4L337.6,132.4z"/>
	</g>
</g>
</svg>
