<svg id="Capa_1" enable-background="new 0 0 512 512" height="512" viewBox="0 0 512 512" width="512" xmlns="http://www.w3.org/2000/svg"><g><path d="m45.5 122h31c8.262 0 15 6.724 15 15l56.84 228.902c-15.773 7-26.84 22.756-26.84 41.098 0 24.814 20.186 45 45 45h17.763c-1.681 4.715-2.763 9.716-2.763 15 0 24.814 20.186 45 45 45s45-20.186 45-45c0-5.284-1.082-10.285-2.763-15h95.526c-1.681 4.715-2.763 9.716-2.763 15 0 24.814 20.186 45 45 45s45-20.186 45-45-20.186-45-45-45h-240c-8.262 0-15-6.724-15-15s6.738-15 15-15h276.416l68.584-240h-384.873l-6.475-25.854-.117.029c-4.878-19.572-22.472-34.175-43.535-34.175h-31c-24.814 0-45 20.186-45 45h30c0-8.276 6.738-15 15-15zm196 345c0 8.276-6.738 15-15 15s-15-6.724-15-15 6.738-15 15-15 15 6.724 15 15zm180 0c0 8.276-6.738 15-15 15s-15-6.724-15-15 6.738-15 15-15 15 6.724 15 15z"/><path d="m361.5 122v-122h-210v122zm-150-90h30v15c0 8.276 6.738 15 15 15s15-6.724 15-15v-15h30v15c0 24.814-20.186 45-45 45s-45-20.186-45-45z"/><path d="m391.5 92h60v30h-60z"/></g></svg>