<?xml version="1.0" encoding="utf-8"?>
<!-- Generator: Adobe Illustrator 22.0.0, SVG Export Plug-In . SVG Version: 6.00 Build 0)  -->
<svg version="1.1" id="Capa_1" xmlns="http://www.w3.org/2000/svg" xmlns:xlink="http://www.w3.org/1999/xlink" x="0px" y="0px"
	 viewBox="0 0 512 512" style="enable-background:new 0 0 512 512;" xml:space="preserve">
<style type="text/css">
	.st0{fill:#F7EB3F;}
	.st1{fill:#FFFFFF;stroke:#FFAEB7;stroke-miterlimit:10;}
</style>
<g>
	<g>
		<g>
			<path class="st0" d="M255.6-1c-99.3,0-180,80.7-180,180c0,33.5,9.3,66.3,26.9,94.6l142.9,230.3c5.9,9.6,19.9,9.4,25.6-0.2
				l139.2-232.5c16.6-27.8,25.4-59.7,25.4-92.2C435.6,79.7,354.9-1,255.6-1z M255.6,269.2c-50.3,0-90.2-41-90.2-90.2
				c0-49.6,40.6-90.2,90.2-90.2s90.2,40.6,90.2,90.2C345.8,227.8,306.5,269.2,255.6,269.2z"/>
		</g>
	</g>
	<g>
		<g>
			<path class="st0" d="M255.4,63.6C191.8,63.6,140,115.3,140,179c0,64,51.7,115.4,115.4,115.4c64.9,0,115.4-52.4,115.4-115.4
				C370.9,115.3,319.1,63.6,255.4,63.6z"/>
		</g>
	</g>
</g>
<g>
	<g>
		<path class="st1" d="M144.5,131h15.4c4.1,0,7.5,3.3,7.5,7.5l28.2,113.7c-7.8,3.5-13.3,11.3-13.3,20.4c0,12.3,10,22.4,22.4,22.4
			h8.8c-0.8,2.3-1.4,4.8-1.4,7.5c0,12.3,10,22.4,22.4,22.4c12.3,0,22.4-10,22.4-22.4c0-2.6-0.5-5.1-1.4-7.5h47.5
			c-0.8,2.3-1.4,4.8-1.4,7.5c0,12.3,10,22.4,22.4,22.4s22.4-10,22.4-22.4c0-12.3-10-22.4-22.4-22.4H204.6c-4.1,0-7.5-3.3-7.5-7.5
			c0-4.1,3.3-7.5,7.5-7.5h137.3L376,145.9H184.8l-3.2-12.8l-0.1,0c-2.4-9.7-11.2-17-21.6-17h-15.4c-12.3,0-22.4,10-22.4,22.4H137
			C137,134.3,140.3,131,144.5,131L144.5,131z M241.8,302.4c0,4.1-3.3,7.5-7.5,7.5s-7.5-3.3-7.5-7.5s3.3-7.5,7.5-7.5
			S241.8,298.3,241.8,302.4z M331.3,302.4c0,4.1-3.3,7.5-7.5,7.5c-4.1,0-7.5-3.3-7.5-7.5s3.3-7.5,7.5-7.5
			C327.9,295,331.3,298.3,331.3,302.4z"/>
		<path class="st1" d="M301.5,131V70.4H197.1V131H301.5z M226.9,86.3h14.9v7.5c0,4.1,3.3,7.5,7.5,7.5s7.5-3.3,7.5-7.5v-7.5h14.9v7.5
			c0,12.3-10,22.4-22.4,22.4c-12.3,0-22.4-10-22.4-22.4V86.3z"/>
		<path class="st1" d="M316.4,116.1h29.8V131h-29.8V116.1z"/>
	</g>
</g>
</svg>
