<?xml version="1.0" encoding="utf-8"?>
<!-- Generator: Adobe Illustrator 22.0.0, SVG Export Plug-In . SVG Version: 6.00 Build 0)  -->
<svg version="1.1" id="Capa_1" xmlns="http://www.w3.org/2000/svg" xmlns:xlink="http://www.w3.org/1999/xlink" x="0px" y="0px"
	 viewBox="0 0 512 512" style="enable-background:new 0 0 512 512;" xml:space="preserve">
<style type="text/css">
	.st0{fill:#58B7C7;}
	.st1{fill:#FFFFFF;}
</style>
<g>
	<g>
		<g>
			<path class="st0" d="M255.6-1c-99.3,0-180,80.7-180,180c0,33.5,9.3,66.3,26.9,94.6l142.9,230.3c5.9,9.6,19.9,9.4,25.6-0.2
				l139.2-232.5c16.6-27.8,25.4-59.7,25.4-92.2C435.6,79.7,354.9-1,255.6-1z M255.6,269.2c-50.3,0-90.2-41-90.2-90.2
				c0-49.6,40.6-90.2,90.2-90.2s90.2,40.6,90.2,90.2C345.8,227.8,306.5,269.2,255.6,269.2z"/>
		</g>
	</g>
	<g>
		<g>
			<path class="st0" d="M255.4,63.6C191.8,63.6,140,115.3,140,179c0,64,51.7,115.4,115.4,115.4c64.9,0,115.4-52.4,115.4-115.4
				C370.9,115.3,319.1,63.6,255.4,63.6z"/>
		</g>
	</g>
</g>
<g>
	<g>
		<g>
			<path class="st1" d="M363.4,147.3l-17.5-17.6l13.2-13.2c1.2-1.2,1.8-2.7,1.8-4.4c0-1.7-0.7-3.2-1.8-4.4l-17.6-17.7
				c-2.3-2.3-6.4-2.3-8.8,0l-13.2,13.2L302,85.7c-4.8-4.9-12.7-4.9-17.5,0c-4.8,4.9-4.8,12.7,0,17.6l61.4,61.6
				c4.8,4.9,12.7,4.9,17.5,0C368.2,160,368.2,152.2,363.4,147.3z"/>
		</g>
	</g>
	<g>
		<g>
			<path class="st1" d="M238.1,273.2l-61.4-61.6c-4.8-4.9-12.7-4.9-17.5,0c-4.8,4.9-4.8,12.7,0,17.6l17.5,17.6l-13.1,13.2
				c-1.2,1.2-1.8,2.7-1.8,4.4c0,1.7,0.7,3.2,1.8,4.4l17.6,17.7c1.2,1.2,2.8,1.8,4.4,1.8c1.6,0,3.2-0.6,4.4-1.8l13.1-13.2l17.5,17.6
				c4.8,4.9,12.7,4.9,17.5,0C242.9,285.9,242.9,278,238.1,273.2z"/>
		</g>
	</g>
	<g>
		<g>
			<polygon class="st1" points="266.9,156.1 229.3,194 255.6,220.4 293.2,182.5 			"/>
		</g>
	</g>
	<g>
		<g>
			<path class="st1" d="M345.9,182.5l-78.9-79.2c-4.8-4.9-12.7-4.9-17.5,0c-4.8,4.9-4.8,12.7,0,17.6l78.9,79.2
				c4.8,4.9,12.7,4.9,17.5,0C350.7,195.2,350.7,187.3,345.9,182.5z"/>
		</g>
	</g>
	<g>
		<g>
			<path class="st1" d="M273.1,255.6l-78.9-79.2c-4.8-4.9-12.7-4.9-17.5,0c-4.8,4.9-4.8,12.7,0,17.6l78.9,79.2
				c4.8,4.9,12.7,4.9,17.5,0C278,268.3,278,260.4,273.1,255.6z"/>
		</g>
	</g>
	<g>
	</g>
	<g>
	</g>
	<g>
	</g>
	<g>
	</g>
	<g>
	</g>
	<g>
	</g>
	<g>
	</g>
	<g>
	</g>
	<g>
	</g>
	<g>
	</g>
	<g>
	</g>
	<g>
	</g>
	<g>
	</g>
	<g>
	</g>
	<g>
	</g>
</g>
</svg>
