<?xml version="1.0" encoding="utf-8"?>
<!-- Generator: Adobe Illustrator 22.0.0, SVG Export Plug-In . SVG Version: 6.00 Build 0)  -->
<svg version="1.1" id="Capa_1" xmlns="http://www.w3.org/2000/svg" xmlns:xlink="http://www.w3.org/1999/xlink" x="0px" y="0px"
	 viewBox="0 0 512 512" style="enable-background:new 0 0 512 512;" xml:space="preserve">
<style type="text/css">
	.st0{fill:#3C5590;}
	.st1{fill:#FFFFFF;}
</style>
<g>
	<g>
		<g>
			<path class="st0" d="M255.6-1c-99.3,0-180,80.7-180,180c0,33.5,9.3,66.3,26.9,94.6l142.9,230.3c5.9,9.6,19.9,9.4,25.6-0.2
				l139.2-232.5c16.6-27.8,25.4-59.7,25.4-92.2C435.6,79.7,354.9-1,255.6-1z M255.6,269.2c-50.3,0-90.2-41-90.2-90.2
				c0-49.6,40.6-90.2,90.2-90.2s90.2,40.6,90.2,90.2C345.8,227.8,306.5,269.2,255.6,269.2z"/>
		</g>
	</g>
	<g>
		<g>
			<path class="st0" d="M255.4,63.6C191.8,63.6,140,115.3,140,179c0,64,51.7,115.4,115.4,115.4c64.9,0,115.4-52.4,115.4-115.4
				C370.9,115.3,319.1,63.6,255.4,63.6z"/>
		</g>
	</g>
</g>
<g>
	<g>
		<g>
			<g>
				<path class="st1" d="M366.4,194.4H193.5V95.7c0-2.9-2-5.2-4.4-5.2h-26.6c-2.5,0-4.4,2.3-4.4,5.2v176.6c0,2.9,2,5.2,4.4,5.2H189
					c2.5,0,4.4-2.3,4.4-5.2v-36.4h141.9v36.4c0,2.9,2,5.2,4.4,5.2h26.6c2.5,0,4.4-2.3,4.4-5.2v-72.7
					C370.8,196.7,368.8,194.4,366.4,194.4z"/>
				<ellipse class="st1" cx="228.9" cy="152.8" rx="26.6" ry="31.2"/>
				<path class="st1" d="M268.8,184h97.5c2.5,0,4.4-2.3,4.4-5.2c0-31.5-21.9-57.1-48.8-57.1h-53.2c-2.5,0-4.4,2.3-4.4,5.2v51.9
					C264.4,181.7,266.4,184,268.8,184z"/>
			</g>
		</g>
	</g>
	<g>
	</g>
	<g>
	</g>
	<g>
	</g>
	<g>
	</g>
	<g>
	</g>
	<g>
	</g>
	<g>
	</g>
	<g>
	</g>
	<g>
	</g>
	<g>
	</g>
	<g>
	</g>
	<g>
	</g>
	<g>
	</g>
	<g>
	</g>
	<g>
	</g>
</g>
</svg>
