<?xml version="1.0" encoding="utf-8"?>
<!-- Generator: Adobe Illustrator 22.0.0, SVG Export Plug-In . SVG Version: 6.00 Build 0)  -->
<svg version="1.1" id="Capa_1" xmlns="http://www.w3.org/2000/svg" xmlns:xlink="http://www.w3.org/1999/xlink" x="0px" y="0px"
	 viewBox="0 0 512 512" style="enable-background:new 0 0 512 512;" xml:space="preserve">
<style type="text/css">
	.st0{fill:#304A76;}
	.st1{fill:#FFFFFF;}
</style>
<g>
	<g>
		<g>
			<path class="st0" d="M255.6-1c-99.3,0-180,80.7-180,180c0,33.5,9.3,66.3,26.9,94.6l142.9,230.3c5.9,9.6,19.9,9.4,25.6-0.2
				l139.2-232.5c16.6-27.8,25.4-59.7,25.4-92.2C435.6,79.7,354.9-1,255.6-1z M255.6,269.2c-50.3,0-90.2-41-90.2-90.2
				c0-49.6,40.6-90.2,90.2-90.2s90.2,40.6,90.2,90.2C345.8,227.8,306.5,269.2,255.6,269.2z"/>
		</g>
	</g>
	<g>
		<g>
			<path class="st0" d="M255.4,63.6C191.8,63.6,140,115.3,140,179c0,64,51.7,115.4,115.4,115.4c64.9,0,115.4-52.4,115.4-115.4
				C370.9,115.3,319.1,63.6,255.4,63.6z"/>
		</g>
	</g>
</g>
<g>
	<g>
		<g>
			<path class="st1" d="M356.3,276.8v-16.7h15v-16.7h-9.9V199c0.2-4.4-3-8.2-7-8.4c-0.2,0-0.3,0-0.5,0H246.5c-4-0.2-7.3,3.4-7.5,7.8
				c0,0.2,0,0.4,0,0.5v44.4h-9.9v16.7h15v16.7h-47.4v-43.5c22.2-6.6,38.7-41.4,38.7-84.4c0-47.8-20.3-85.3-46.2-85.3
				S143,101.1,143,148.9c0,43,16.5,77.6,38.7,84.4v43.5H140v16.7h238v-16.7H356.3z M341.4,276.8H259v-16.7h82.4V276.8z"/>
		</g>
	</g>
</g>
</svg>
