<?xml version="1.0" encoding="utf-8"?>
<!-- Generator: Adobe Illustrator 22.0.0, SVG Export Plug-In . SVG Version: 6.00 Build 0)  -->
<svg version="1.1" id="Capa_1" xmlns="http://www.w3.org/2000/svg" xmlns:xlink="http://www.w3.org/1999/xlink" x="0px" y="0px"
	 viewBox="0 0 512 512" style="enable-background:new 0 0 512 512;" xml:space="preserve">
<style type="text/css">
	.st0{fill:#4EA261;}
	.st1{fill:#FFFFFF;}
	.st2{fill:#FCFCFC;}
</style>
<g>
	<g>
		<g>
			<path class="st0" d="M255.6-1c-99.3,0-180,80.7-180,180c0,33.5,9.3,66.3,26.9,94.6l142.9,230.3c5.9,9.6,19.9,9.4,25.6-0.2
				l139.2-232.5c16.6-27.8,25.4-59.7,25.4-92.2C435.6,79.7,354.9-1,255.6-1z M255.6,269.2c-50.3,0-90.2-41-90.2-90.2
				c0-49.6,40.6-90.2,90.2-90.2s90.2,40.6,90.2,90.2C345.8,227.8,306.5,269.2,255.6,269.2z"/>
		</g>
	</g>
	<g>
		<g>
			<path class="st0" d="M255.4,63.6C191.8,63.6,140,115.3,140,179c0,64,51.7,115.4,115.4,115.4c64.9,0,115.4-52.4,115.4-115.4
				C370.9,115.3,319.1,63.6,255.4,63.6z"/>
		</g>
	</g>
</g>
<g>
	<g>
		<g>
			<path class="st1" d="M360.3,271.6L273.6,180L172.3,73.1h-8.1l-1.7,4.4c-4.3,11.5-6.1,23.2-5.2,33.9c0.9,12.2,5.4,22.8,12.7,30.6
				l79.2,83.6l10.4-11l73.2,86.4c7.2,7.6,19.8,8.1,27.5,0C367.8,292.6,367.8,279.5,360.3,271.6z"/>
		</g>
	</g>
	<g>
		<g>
			<path class="st2" d="M212.5,205.9l-62,65.5c-7.5,7.9-7.5,21.1,0,29c7.2,7.6,19.6,8.3,27.5,0l62-65.5L212.5,205.9z"/>
		</g>
	</g>
	<g>
		<g>
			<path class="st2" d="M356.6,111.8l-35.1,37.1l-9.2-9.7l35.1-37.1l-9.2-9.7L303,129.5l-9.2-9.7L329,82.6l-9.2-9.7l-45.9,48.4
				c-5.7,6-8.9,13.8-9.4,22.2c-0.2,2.1-0.6,4.2-1.4,6.2l29.8,31.4c1.8-0.8,3.8-1.3,5.8-1.5c8-0.5,15.3-4.1,21-9.9l45.9-48.4
				L356.6,111.8z"/>
		</g>
	</g>
</g>
</svg>
