<svg width="30" height="30" viewBox="0 0 30 30" fill="none" xmlns="http://www.w3.org/2000/svg">
<path d="M21.1523 9.72656C21.1523 6.32525 18.3916 3.51562 15 3.51562C11.6128 3.51562 8.84766 6.32133 8.84766 9.72656C8.84766 13.119 11.6076 15.8789 15 15.8789C18.3924 15.8789 21.1523 13.119 21.1523 9.72656ZM10.6055 9.72656C10.6055 7.27107 12.5769 5.27344 15 5.27344C17.4231 5.27344 19.3945 7.27107 19.3945 9.72656C19.3945 12.1497 17.4231 14.1211 15 14.1211C12.5769 14.1211 10.6055 12.1497 10.6055 9.72656Z" fill="#01AE92"/>
<path d="M24.668 9.72656C24.668 4.39383 20.339 0 15 0C9.96006 0 5.33203 4.02645 5.33203 9.72656C5.33203 13.2805 8.81168 18.651 10.8777 21.6021C8.581 22.0637 5.33203 23.2556 5.33203 25.6055C5.33203 28.9658 11.5911 30 15 30C18.4092 30 24.668 28.9658 24.668 25.6055C24.668 23.2555 21.4187 22.0636 19.1223 21.6021C21.1777 18.6662 24.668 13.2846 24.668 9.72656ZM7.08984 9.72656C7.08984 4.80451 11.1958 1.75781 15 1.75781C19.3617 1.75781 22.9102 5.33256 22.9102 9.72656C22.9102 13.4487 17.7093 20.7857 14.9999 24.2077C12.2904 20.7864 7.08984 13.451 7.08984 9.72656V9.72656ZM22.9102 25.6055C22.9102 27.0739 18.6058 28.2422 15 28.2422C11.399 28.2422 7.08984 27.0729 7.08984 25.6055C7.08984 24.9059 8.65992 23.6932 12.0164 23.1866C13.2983 24.9261 14.2632 26.0937 14.3233 26.1663C14.4902 26.3678 14.7383 26.4844 15 26.4844C15.2617 26.4844 15.5098 26.3678 15.6767 26.1663C15.7368 26.0937 16.7017 24.9261 17.9836 23.1866C21.3401 23.6932 22.9102 24.9059 22.9102 25.6055V25.6055Z" fill="#01AE92"/>
</svg>
