<?xml version="1.0" encoding="UTF-8" standalone="no"?>
<!-- Created with Inkscape (http://www.inkscape.org/) -->

<svg
   xmlns:dc="http://purl.org/dc/elements/1.1/"
   xmlns:cc="http://creativecommons.org/ns#"
   xmlns:rdf="http://www.w3.org/1999/02/22-rdf-syntax-ns#"
   xmlns:svg="http://www.w3.org/2000/svg"
   xmlns="http://www.w3.org/2000/svg"
   xmlns:sodipodi="http://sodipodi.sourceforge.net/DTD/sodipodi-0.dtd"
   xmlns:inkscape="http://www.inkscape.org/namespaces/inkscape"
   width="100mm"
   height="100mm"
   viewBox="0 0 354.33064 354.33071"
   id="svg2"
   version="1.1"
   inkscape:version="0.91 r13725"
   sodipodi:docname="feels.svg">
  <defs
     id="defs4" />
  <sodipodi:namedview
     id="base"
     pagecolor="#ffffff"
     bordercolor="#666666"
     borderopacity="1.0"
     inkscape:pageopacity="0.0"
     inkscape:pageshadow="2"
     inkscape:zoom="1.2113368"
     inkscape:cx="270.11112"
     inkscape:cy="206.28406"
     inkscape:document-units="px"
     inkscape:current-layer="layer1"
     showgrid="false"
     showguides="false"
     inkscape:window-width="1366"
     inkscape:window-height="744"
     inkscape:window-x="0"
     inkscape:window-y="24"
     inkscape:window-maximized="1" />
  <metadata
     id="metadata7">
    <rdf:RDF>
      <cc:Work
         rdf:about="">
        <dc:format>image/svg+xml</dc:format>
        <dc:type
           rdf:resource="http://purl.org/dc/dcmitype/StillImage" />
        <dc:title></dc:title>
      </cc:Work>
    </rdf:RDF>
  </metadata>
  <g
     inkscape:label="Capa 1"
     inkscape:groupmode="layer"
     id="layer1"
     transform="translate(0,-698.0315)">
    <path
       style="fill:#5a8d3e;fill-opacity:1;fill-rule:evenodd;stroke:#000000;stroke-width:1.82854795px;stroke-linecap:butt;stroke-linejoin:miter;stroke-opacity:1"
       d="M 22.377372,944.77724 C 15.320933,936.97331 11.978011,926.22181 9.3163094,916.04291 9.2473038,915.77899 9.1786382,915.51455 9.1104039,915.2496 6.6100005,905.54048 4.650848,895.13529 6.7041007,885.34943 8.6841003,875.9127 16.249895,868.57505 20.418211,859.88038 c 6.970141,-14.539 9.868634,-30.1899 18.842509,-44.54935 0,0 0.50024,-0.78923 0.749084,-1.16435 4.510536,-6.7995 10.718321,-12.4001 16.979357,-17.63244 2.409023,-2.01321 7.836653,-5.22441 7.836653,-5.22441 0,0 7.814551,-12.63946 11.754946,-18.93854 6.277731,-10.03553 11.035096,-21.22808 18.938524,-30.04044 6.310236,-7.03593 13.826406,-13.2572 22.203806,-17.63243 8.05799,-4.20839 17.04549,-7.32961 26.1221,-7.83662 9.72,-0.54296 19.5164,2.09347 28.73434,5.22441 8.11229,2.75541 16.46631,6.04859 22.85684,11.75495 1.75632,1.56829 3.91832,5.87749 3.91832,5.87749 0,0 22.64424,-12.65143 34.44853,-15.02023 11.8043,-2.36879 26.35077,-3.25689 34.77508,0 8.42429,3.25691 9.90133,7.61362 14.36715,13.06107 4.46582,5.44745 9.72202,12.25209 11.75495,19.59158 0.58107,2.09786 0,6.53054 0,6.53054 0,0 21.95318,10.68409 30.69347,18.93853 4.48925,4.23969 7.40178,10.62504 10.6121,15.18347 2.23718,3.17663 6.18599,4.87934 6.79076,8.11831 0.28574,1.53037 -0.35799,3.5563 -1.11668,5.26784 -0.84704,1.91092 -3.2227,1.81376 -3.2227,1.81376 -3.63413,3.66391 -2.61465,13.37116 -2.61465,13.37116 0,0 -0.59327,5.73462 -3.18702,8.10953 -2.53962,2.32532 -5.68536,1.47322 -8.16216,3.8879 -1.97155,3.70917 -3.2446,4.83405 -4.97713,6.94109 -4.94643,6.01561 -20.89768,10.44885 -20.89768,10.44885 0,0 -0.50719,3.13449 0,4.57137 0.8797,2.49217 2.33989,4.64718 4.06697,6.65215 3.93815,4.57178 9.26395,8.36332 12.25934,13.59249 4.28039,7.47248 9.14274,24.16295 9.14274,24.16295 0,0 -18.169,34.97588 -32.65262,47.67286 -13.03064,11.42327 -29.93397,18.00969 -46.36675,23.5099 -11.74284,3.93041 -24.22919,5.51896 -36.57096,6.53053 -16.49015,1.35149 -33.12666,0.49793 -49.63202,-0.65302 -31.08302,-2.16758 -63.159556,-1.94506 -92.733502,-11.75501 -15.321592,-5.08231 -29.669729,-11.84701 -42.158324,-23.83061 -0.569245,-0.54623 -1.102797,-1.09274 -1.596212,-1.63842 z"
       id="path4147"
       inkscape:connector-curvature="0"
       sodipodi:nodetypes="sssasssscssaaasczzzscasssscscscssscsssssss" />
    <path
       style="fill:#5a8d3e;fill-opacity:1;fill-rule:evenodd;stroke:#000000;stroke-width:1.09712875;stroke-linecap:butt;stroke-linejoin:miter;stroke-miterlimit:4;stroke-dasharray:none;stroke-opacity:1"
       d="m 33.398552,957.01551 13.061063,20.24467 c 0,0 36.399134,11.09273 54.856445,15.67324 15.33167,3.80484 30.63862,8.32518 46.36674,9.79578 19.94468,1.865 40.5319,3.065 60.08087,-1.3061 8.3691,-1.87134 23.5099,-10.44885 23.5099,-10.44885 l 12.55846,-14.5224 c -44.22558,11.35424 -111.5964,9.12677 -210.433478,-19.43634 z"
       id="path4149"
       inkscape:connector-curvature="0"
       sodipodi:nodetypes="ccsssccc" />
    <path
       style="fill:#9f5935;fill-opacity:1;stroke:#000000;stroke-width:1.82854795;stroke-opacity:1"
       d="m 110.71172,929.61448 c -2.87806,-2.69436 -1.81835,-5.67268 -1.30611,-8.48968 0.71493,-3.9317 3.05422,-7.62069 5.87748,-10.44886 3.34518,-3.35098 7.81679,-5.68076 12.36837,-6.98549 10.9047,-3.12589 22.94169,-2.69938 33.99837,-1.50419 12.48897,1.35001 22.88445,7.9957 35.26485,10.12232 15.27474,2.62376 47.67286,4.24484 47.67286,4.24484 0,0 18.77659,0.38991 28.08128,-0.65304 16.33397,-1.83086 34.77937,-0.4877 48.32591,-9.79582 2.33927,-1.60734 2.8207,-1.83949 4.78246,-1.87992 2.93004,-0.0603 3.06752,3.48053 3.56856,7.29904 0.60806,4.63416 -1.44814,6.64232 -4.8979,9.79578 -2.08873,1.90932 -2.63439,1.9165 -5.18138,3.14982 -2.01717,0.97676 -6.10839,1.87992 -6.10839,1.87992 0,0 0.86932,7.38259 -0.75549,10.48847 -1.81424,3.46799 -5.56273,5.78205 -9.13934,7.37146 -8.42924,3.74587 -27.32917,4.34388 -27.32917,4.34388 0,0 -61.89929,-1.98406 -94.0396,-7.18358 -9.27768,-1.5009 -18.12088,-5.22608 -27.42822,-6.53053 -14.45815,-2.02635 -33.09661,4.7532 -43.75454,-5.22442 z"
       id="path4151"
       inkscape:connector-curvature="0"
       sodipodi:nodetypes="ssaasscsssssscaacsss" />
    <path
       style="fill:#ffffff;fill-opacity:1;stroke:#000000;stroke-width:1.82854795;stroke-opacity:1"
       d="m 230.96172,825.04839 c 1.14828,-3.60775 3.92442,-5.4006 6.81122,-7.85024 5.16007,-4.37865 14.98726,-7.17118 22.98505,-9.21235 9.71067,-2.47832 19.84383,-3.08642 29.85472,-3.55656 10.27765,-0.48268 20.83817,-1.57737 30.8575,0.76269 6.24836,1.45935 13.22887,3.27681 17.46354,8.09753 1.75345,1.99609 3.0561,4.58096 2.39292,7.60292 -0.65075,2.96533 -2.1062,3.74187 -5.27083,5.89106 -3.16465,2.14918 -9.73779,4.26476 -14.12385,5.19162 -9.4004,2.10685 -18.56151,5.74867 -28.16847,6.46489 -14.00977,1.04447 -28.47853,-0.17681 -42.48359,-2.42433 -4.14427,-0.66509 -8.50049,-1.20504 -12.16469,-3.25226 -3.26642,-1.82499 -8.76758,-5.78575 -8.15352,-7.71497 z"
       id="path4155"
       inkscape:connector-curvature="0"
       sodipodi:nodetypes="ssaaaasccsaas" />
    <path
       style="fill:#ffffff;fill-opacity:1;stroke:#000000;stroke-width:1.82854795;stroke-opacity:1"
       d="m 125.67632,821.35415 c 0,0 24.65513,14.49877 38.32757,18.00935 9.41157,2.41655 19.41874,2.76633 29.09203,1.84711 14.08603,-1.33856 27.06308,-2.23258 36.83259,-12.46801 4.66901,-4.89166 7.9787,-9.79096 6.46491,-16.16224 -0.42242,-1.77784 -0.41297,-4.88828 -2.26007,-5.35006 -1.84713,-0.46178 -23.16145,-2.08285 -36.41965,-0.19126 -16.45242,2.34731 -31.60562,10.82277 -48.02493,13.39154 -7.91381,1.23812 -24.01245,0.92357 -24.01245,0.92357 z"
       id="path4153"
       inkscape:connector-curvature="0"
       sodipodi:nodetypes="csssssssc" />
    <path
       style="fill:#000000;fill-opacity:1;stroke:#000000;stroke-width:1.09712875;stroke-miterlimit:4;stroke-dasharray:none;stroke-opacity:1"
       d="m 319.5461,830.86593 c 0,0.85701 -18.22579,7.62879 -34.93834,7.18359 -11.46116,-0.30531 -14.58887,1.16152 -15.43778,-1.52538 -0.21928,-0.69409 -0.50202,-2.63501 -0.48278,-3.81111 0.12726,-7.78326 6.39895,-18.40451 13.67452,-24.08987 3.62004,-2.82882 8.99547,-3.11861 13.27552,-3.70447 14.29356,-1.95656 23.90886,11.51671 23.90886,25.94724 z"
       id="path4204"
       inkscape:connector-curvature="0"
       sodipodi:nodetypes="ssssass" />
    <path
       style="fill:#0446fc;fill-opacity:1;stroke:#000000;stroke-width:1.82854795;stroke-opacity:1"
       d="m 21.894297,968.01374 0.226923,-9.2123 c 0,0 3.268886,-1.65007 5.028938,-2.09957 2.49498,-0.63715 7.68296,-0.80635 7.68296,-0.80635 0,0 5.91292,5.63274 18.625597,13.84938 12.712689,8.21666 45.850342,16.14079 69.550115,21.22418 18.88321,4.05038 34.75331,7.46113 54.05634,7.12645 15.74435,-1.07637 31.41819,-2.66872 44.08607,-7.54865 5.27941,-2.08584 18.06139,-8.21925 18.06139,-8.21925 0,0 12.21734,4.95102 14.16628,5.97993 13.11346,6.92344 13.89322,11.68225 24.58793,21.17794 5.29601,4.7022 14.69369,15.3467 14.69369,15.3467 l -271.374828,-2.8238 z"
       id="path4157"
       inkscape:connector-curvature="0"
       sodipodi:nodetypes="ccsczscccssccc" />
    <path
       style="fill:none;fill-opacity:1;stroke:#000000;stroke-width:1.09712875;stroke-linecap:round;stroke-miterlimit:4;stroke-dasharray:none;stroke-opacity:1"
       d="m 89.37831,931.23348 c 0,0 2.630065,7.64379 5.668148,10.90083 4.344205,5.05294 12.315652,7.53452 12.315652,7.53452"
       id="path4202"
       inkscape:connector-curvature="0"
       sodipodi:nodetypes="ccc" />
    <path
       style="fill:#000000;fill-opacity:1;stroke:#000000;stroke-width:1.09712875;stroke-miterlimit:4;stroke-dasharray:none;stroke-opacity:1"
       d="m 214.73112,837.39646 c 0,0 -15.28706,3.75503 -29.71391,3.75505 -14.42684,0 -22.81894,-2.88921 -22.81894,-2.88921 0.0713,-14.42531 16.15141,-28.09589 28.20663,-27.96753 6.81086,0.0726 13.64509,2.78903 18.09211,7.07052 4.97218,4.78708 5.40965,12.46035 6.23411,20.03117 z"
       id="circle4206"
       inkscape:connector-curvature="0"
       sodipodi:nodetypes="ssssss" />
    <ellipse
       style="fill:#ffffff;fill-opacity:1;stroke:none;stroke-width:0.60000002;stroke-miterlimit:4;stroke-dasharray:none;stroke-opacity:1"
       id="path4214"
       cx="180.90324"
       cy="822.57623"
       rx="4.1560025"
       ry="5.0795588" />
    <circle
       style="fill:#ffffff;fill-opacity:1;stroke:none;stroke-width:0.60000002;stroke-miterlimit:4;stroke-dasharray:none;stroke-opacity:1"
       id="path4216"
       cx="196.0975"
       cy="829.89709"
       r="7.1575608" />
    <ellipse
       ry="3.2324464"
       rx="3.3373961"
       cy="834.28394"
       cx="180.29208"
       id="ellipse4218"
       style="fill:#ffffff;fill-opacity:1;stroke:none;stroke-width:0.60000002;stroke-miterlimit:4;stroke-dasharray:none;stroke-opacity:1" />
    <ellipse
       ry="3.7734537"
       rx="3.0873706"
       cy="819.42792"
       cx="284.74265"
       id="ellipse4220"
       style="fill:#ffffff;fill-opacity:1;stroke:none;stroke-width:0.60000002;stroke-miterlimit:4;stroke-dasharray:none;stroke-opacity:1" />
    <circle
       r="6.0147181"
       cy="824.13654"
       cx="299.8479"
       id="circle4222"
       style="fill:#ffffff;fill-opacity:1;stroke:none;stroke-width:0.60000002;stroke-miterlimit:4;stroke-dasharray:none;stroke-opacity:1" />
    <ellipse
       style="fill:#ffffff;fill-opacity:1;stroke:none;stroke-width:0.60000002;stroke-miterlimit:4;stroke-dasharray:none;stroke-opacity:1"
       id="ellipse4224"
       cx="285.30078"
       cy="830.26886"
       rx="2.5292845"
       ry="2.4497473" />
    <path
       style="fill:none;fill-opacity:1;stroke:#000000;stroke-width:1.09712875;stroke-linecap:round;stroke-miterlimit:4;stroke-dasharray:none;stroke-opacity:1"
       d="m 313.45583,925.12653 c -7.40012,3.69488 -26.89521,7.02271 -40.43975,7.28911 -22.22616,0.43716 -43.32342,-0.33978 -65.46853,-2.28567 -13.77118,-1.21006 -31.30389,-10.61961 -45.06744,-11.91343 -10.63959,-1.00016 -33.03861,2.31229 -33.03861,2.31229"
       id="path4226"
       inkscape:connector-curvature="0"
       sodipodi:nodetypes="csssc" />
    <path
       style="fill:none;fill-opacity:1;stroke:#000000;stroke-width:1.09712875;stroke-linecap:round;stroke-miterlimit:4;stroke-dasharray:none;stroke-opacity:1"
       d="m 65.591548,790.77945 c -4.942878,8.00867 -5.684347,20.96912 -8.239581,31.36542"
       id="path4230"
       inkscape:connector-curvature="0"
       sodipodi:nodetypes="cc" />
    <path
       style="fill:none;fill-opacity:1;stroke:#000000;stroke-width:1.09712875;stroke-miterlimit:4;stroke-dasharray:none;stroke-opacity:1"
       d="m 199.12547,740.17902 c 3.81153,6.29538 5.94051,13.73549 3.03436,24.89184 7.78959,5.04138 5.03392,7.97141 9.10935,13.83815"
       id="path4232"
       inkscape:connector-curvature="0"
       sodipodi:nodetypes="ccc" />
    <path
       style="fill:none;fill-opacity:1;stroke:#000000;stroke-width:1.09712875;stroke-miterlimit:4;stroke-dasharray:none;stroke-opacity:1"
       d="m 295.46479,764.58105 c -2.82705,-0.98701 -9.5236,-3.60659 -14.5329,-4.06905 -26.24847,-2.42323 -50.01149,-2.02102 -79.26183,4.39559"
       id="path4234"
       inkscape:connector-curvature="0"
       sodipodi:nodetypes="csc" />
    <path
       style="fill:none;fill-opacity:1;stroke:#000000;stroke-width:1.09712875;stroke-miterlimit:4;stroke-dasharray:none;stroke-opacity:1"
       d="m 202.03039,764.90349 c -13.23716,-6.02779 -18.54193,-12.27503 -41.78358,-12.16849 -21.36798,0.098 -43.29215,16.24378 -50.1046,21.46476"
       id="path4236"
       inkscape:connector-curvature="0"
       sodipodi:nodetypes="csc" />
    <path
       style="fill:none;fill-opacity:1;stroke:#000000;stroke-width:1.09712875;stroke-miterlimit:4;stroke-dasharray:none;stroke-opacity:1"
       d="m 298.97494,855.45105 c -13.99281,2.60305 -24.94413,5.35264 -43.65609,3.11362"
       id="path4238"
       inkscape:connector-curvature="0"
       sodipodi:nodetypes="cc" />
    <path
       style="fill:none;fill-opacity:1;stroke:#000000;stroke-width:1.09712875;stroke-miterlimit:4;stroke-dasharray:none;stroke-opacity:1"
       d="m 243.13891,852.2534 c 3.43491,2.08248 14.52657,5.46719 20.40791,14.04065"
       id="path4240"
       inkscape:connector-curvature="0"
       sodipodi:nodetypes="cc" />
    <path
       style="fill:none;fill-opacity:1;stroke:#000000;stroke-width:1.09712875;stroke-miterlimit:4;stroke-dasharray:none;stroke-opacity:1"
       d="m 232.03703,826.86596 c 0,0 1.90814,0.3357 2.85711,1.79591 2.33653,3.59536 -2.98255,8.35369 -6.20401,11.18355 -8.50466,5.55016 -18.21419,6.31274 -27.14545,7.29011 -15.79224,1.72816 -32.14794,2.52198 -47.54749,-1.2494 -9.88165,-2.42002 -27.42821,-13.38759 -27.42821,-13.38759"
       id="path4242"
       inkscape:connector-curvature="0"
       sodipodi:nodetypes="cscsac" />
    <path
       style="fill:#5a8d3e;fill-opacity:1;stroke:none;stroke-width:0.60000002;stroke-miterlimit:4;stroke-dasharray:none;stroke-opacity:1"
       d="m 230.71051,829.82512 c 0.83323,-1.05616 0.91082,-1.47611 2.10202,-1.55101 0.97881,-0.0614 1.91993,1.21929 2.14283,2.22445 0.16347,0.73718 -0.30034,1.52516 -0.7347,2.14282 -1.05785,1.50429 -4.30607,3.44893 -4.30607,3.44893 0,0 -0.0373,-5.20902 0.79592,-6.26519 z"
       id="path4244"
       inkscape:connector-curvature="0"
       sodipodi:nodetypes="zsaacz" />
    <path
       style="fill:none;fill-opacity:1;stroke:#000000;stroke-width:1.09712875;stroke-miterlimit:4;stroke-dasharray:none;stroke-opacity:1"
       d="m 126.3649,821.02931 c 0,0 -9.01475,-0.0391 -12.85699,-2.89792 -1.82335,-1.35663 -3.38226,-2.10658 -2.6122,-4.24485 0.79781,-2.21533 3.58287,-3.39014 5.87748,-3.91831 4.71021,-1.08417 8.94098,0.0762 14.53043,-1.63263 5.58943,-1.7088 12.80479,-6.45009 18.12221,-9.46926 5.31743,-3.01915 5.68035,-5.63118 13.83536,-8.5071 8.15501,-2.87593 20.11958,-1.13563 20.11958,-1.13563"
       id="path4246"
       inkscape:connector-curvature="0"
       sodipodi:nodetypes="cssszzcc" />
    <path
       style="fill:none;fill-opacity:1;stroke:#000000;stroke-width:1.09712875;stroke-miterlimit:4;stroke-dasharray:none;stroke-opacity:1"
       d="m 126.56898,801.47855 c 0,0 8.95557,-2.85887 13.16628,-4.91092 6.91476,-3.3698 12.60311,-9.03223 19.67422,-12.06026 7.16717,-3.06914 14.87906,-4.97291 22.6082,-5.99668 8.21939,-1.08871 19.22018,-0.67901 24.87334,-0.10224 5.41241,0.56773 14.02948,1.76072 18.28888,3.34789 4.2594,1.58717 4.99775,5.1352 4.24484,7.18358 -0.7529,2.04838 -2.75991,1.25467 -4.48974,1.55099"
       id="path4248"
       inkscape:connector-curvature="0"
       sodipodi:nodetypes="caaaczzc" />
    <path
       style="fill:none;fill-opacity:1;stroke:#000000;stroke-width:1.09712875;stroke-linecap:round;stroke-miterlimit:4;stroke-dasharray:none;stroke-opacity:1"
       d="m 235.22064,807.19276 c 0,0 1.34528,-2.14996 1.30609,-3.3469 -0.12177,-3.72295 -2.91311,-7.23838 -4.7346,-10.12231 -2.36274,-3.74086 -7.64095,-2.86989 -9.79579,-3.91832"
       id="path4250"
       inkscape:connector-curvature="0"
       sodipodi:nodetypes="casc" />
    <path
       style="fill:none;fill-opacity:1;stroke:#000000;stroke-width:1.09712875;stroke-linecap:round;stroke-miterlimit:4;stroke-dasharray:none;stroke-opacity:1"
       d="m 233.92365,796.22107 c 0,0 18.14717,-5.65628 27.82726,-7.15051 11.20569,-1.72974 22.67007,-3.01975 33.95876,-1.95916 11.61679,1.0914 22.26426,4.83197 33.38153,8.37423 4.37774,1.39487 9.80231,5.39999 9.80231,5.39999"
       id="path4252"
       inkscape:connector-curvature="0"
       sodipodi:nodetypes="csssc" />
    <path
       style="fill:none;fill-opacity:1;stroke:#000000;stroke-width:1.09712875;stroke-linecap:round;stroke-miterlimit:4;stroke-dasharray:none;stroke-opacity:1"
       d="m 240.46387,784.94456 c 0,0 23.10789,-6.53091 35.00115,-7.30243 12.85365,-0.83382 26.12977,-0.54597 38.53012,2.93873 5.76404,1.61978 15.99979,8.16315 15.99979,8.16315"
       id="path4254"
       inkscape:connector-curvature="0"
       sodipodi:nodetypes="casc" />
    <path
       style="fill:none;fill-opacity:1;stroke:#000000;stroke-width:1.09712875;stroke-linecap:round;stroke-miterlimit:4;stroke-dasharray:none;stroke-opacity:1"
       d="m 176.88686,870.59009 c 35.70258,-12.0265 38.91192,-21.54061 45.98702,-27.66309"
       id="path4256"
       inkscape:connector-curvature="0"
       sodipodi:nodetypes="cc" />
  </g>
</svg>
